<?xml version="1.0" encoding="utf-8"?>
<!-- Generator: Adobe Illustrator 22.1.0, SVG Export Plug-In . SVG Version: 6.00 Build 0)  -->
<svg version="1.1" id="Layer_1" xmlns="http://www.w3.org/2000/svg" xmlns:xlink="http://www.w3.org/1999/xlink" x="0px" y="0px"
	 viewBox="0 0 992.1 992.1" style="enable-background:new 0 0 992.1 992.1;" xml:space="preserve">
<style type="text/css">
	.st0{fill:url(#SVGID_1_);}
	.st1{fill:#405058;}
	.st2{fill:#006F8D;}
	.st3{opacity:0.39;}
	.st4{fill:#415058;}
	.st5{opacity:0.28;}
	.st6{fill:#476979;}
</style>
<radialGradient id="SVGID_1_" cx="499.1779" cy="393.7627" r="285.7068" gradientUnits="userSpaceOnUse">
	<stop  offset="0" style="stop-color:#C6E8FB"/>
	<stop  offset="5.287820e-02" style="stop-color:#C2E2F5"/>
	<stop  offset="0.1483" style="stop-color:#BEDEF0"/>
	<stop  offset="0.4135" style="stop-color:#BDDDEF"/>
	<stop  offset="0.522" style="stop-color:#B1D7EC"/>
	<stop  offset="0.7147" style="stop-color:#8FC7E4"/>
	<stop  offset="0.9675" style="stop-color:#4DAED6"/>
	<stop  offset="1" style="stop-color:#40ABD4"/>
</radialGradient>
<path class="st0" d="M780.8,345.2c-4.2,9.9-12.5,22.5-28.7,34.1c-33.2,23.9-72.3,38.5-77.1,58.2c-3.7,15-1.4,38.7-0.2,49.2
	c0.4,3.5,0,7.1-1.4,10.4l-41-54.3l-41-54.3c3.5-0.4,7.1,0.1,10.4,1.5c9.7,4.1,31.9,12.7,47.4,13.3c20.3,0.8,45.1-32.8,77.1-58.2
	c21.3-16.9,40.3-19.1,50.6-18.7c-30.3-125.3-143.1-218.4-277.7-218.4c-3.1,0-6.3,0.1-9.4,0.2c-12.8,0.4-24.8,6.1-33.3,15.6l-3,3.3
	c-1.6,1.7-4.4,1.8-6-0.1c-1.3-1.5-1.2-3.7,0-5.2c2.9-3.7-0.3-9.1-5-8.2c-0.3,0.1-0.6,0.1-0.8,0.2c-38.2,7.8-71.8,30.3-94.3,62.2
	l-14.2,20.2c-1.2,1.6-1.5,3.8-0.7,5.6c1.8,4,7.2,4.5,9.7,0.8l25-29c3.5-4,9.5-4.7,13.8-1.4c4.5,3.5,4.9,10.1,1.4,14.5l-44.9,55.4
	c-1.9,2.7-2,6.4-0.1,9.2c8.9,5.8,15.1-1.9,19.2-7.1c33.7-42.8,72.7-83,115-118.3c2.5-2.1,6.2-1.8,8.4,0.7c2,2.3,1.7,5.9-0.4,8.1
	C402.1,218.1,284.7,335.1,330,415.4c60.7,107.9,210.5,12.8,210.5,12.8l75.7,103.6c-47,38.4-152.4,75.5-239.2,50.5
	c-47.6-13.7-86.8-47.3-113.5-107.2c-22.1-49.4-27-105.5-10.2-168.3c19.2-71.7,59-116.2,88.6-151.7
	C263.4,207.1,212,296.7,213.5,398.1c2.3,155.8,130.3,281.6,286.1,281.3c157.6-0.2,285.3-128,285.3-285.7
	C784.9,377.2,783.5,361,780.8,345.2z M633,527.7l-41-54.3L551,419l29.9-22.5l41,54.3l41,54.3L633,527.7z"/>
<g>
	<path class="st1" d="M96.5,729.3v72.2H66.3V700.2h39.3c17.2,0,30.7,3.9,40.5,11.7c11.6,9.4,17.4,22.1,17.4,38.1
		c0,15.3-5,27.9-14.8,37.6c-9.9,9.7-22.6,14.6-38.2,14.6c-1.8,0-4.8-0.1-9-0.3V772h4.8c17.6,0,26.4-7.4,26.4-22.1
		c0-13.8-8.6-20.7-25.9-20.7H96.5z"/>
	<path class="st1" d="M175.5,801.5v-73.1c0-9.1,2.7-16.5,8.2-22.2c5.5-5.7,12.6-8.6,21.4-8.6c10.4,0,18.4,4.8,24,14.3
		c3.4-5.1,7.1-8.8,11-11c3.9-2.2,8.7-3.3,14.5-3.3c9.1,0,16.1,2.9,20.9,8.6c4.9,5.7,7.3,14,7.3,24.8v70.5h-30.1v-65.9
		c0-3.3-0.3-5.4-0.8-6.5c-0.5-1.1-1.6-1.6-3.2-1.6c-3,0-4.5,2.5-4.5,7.6v66.5h-30.1v-65.9c0-3.2-0.3-5.4-0.8-6.5
		c-0.5-1.1-1.6-1.6-3.2-1.6c-3,0-4.5,2.7-4.5,8.1v65.9H175.5z"/>
	<path class="st2" d="M369.3,729.3v72.2h-30.1V700.2h39.3c17.2,0,30.7,3.9,40.5,11.7c11.6,9.4,17.4,22.1,17.4,38.1
		c0,15.3-5,27.9-14.8,37.6c-9.9,9.7-22.6,14.6-38.2,14.6c-1.8,0-4.8-0.1-9-0.3V772h4.8c17.6,0,26.4-7.4,26.4-22.1
		c0-13.8-8.6-20.7-25.9-20.7H369.3z"/>
	<path class="st2" d="M521.1,769H479c-0.6-2.1-1-4.1-1-5.9c0-2.5,0.4-4.9,1.3-7.3h14.1c-1-5.5-4.1-8.2-9.3-8.2
		c-3.5,0-6.3,1.5-8.5,4.4c-2.2,2.9-3.3,6.7-3.3,11.3c0,4.8,1.1,8.7,3.2,11.7c2.1,3,4.9,4.5,8.3,4.5c2.8,0,5.4-1.4,8-4.2l15.8,19
		c-7.4,5.8-15.6,8.7-24.6,8.7c-11,0-20.2-3.7-27.7-11.1c-7.5-7.4-11.2-16.5-11.2-27.4c0-10.8,3.8-20,11.3-27.5s16.8-11.2,27.8-11.2
		c10.7,0,19.8,3.7,27.1,11c7.3,7.3,11,16.3,11,27C521.4,764.9,521.3,766.6,521.1,769z"/>
	<path class="st2" d="M560.4,700.2v101.3h-27.8V700.2H560.4z M602.9,727.5l-13.6,27l20.2,47.1h-30.7l-17.4-48.3l12.6-25.7H602.9z"/>
	<path class="st2" d="M649.7,725.9c10.5,0,19.5,3.8,27,11.3c7.5,7.5,11.2,16.6,11.2,27.1c0,10.7-3.8,19.8-11.4,27.3
		c-7.6,7.5-16.8,11.3-27.5,11.3c-10.7,0-19.9-3.8-27.5-11.3c-7.6-7.5-11.4-16.6-11.4-27.3c0-10.8,3.8-20,11.4-27.4
		C629.1,729.6,638.5,725.9,649.7,725.9z M648.9,753.3c-3,0-5.5,1.1-7.6,3.2c-2.1,2.2-3.1,4.8-3.1,7.9c0,3.1,1.1,5.7,3.2,7.9
		c2.1,2.2,4.6,3.3,7.5,3.3c3,0,5.5-1.1,7.6-3.3c2.1-2.2,3.2-4.8,3.2-7.9c0-3.1-1-5.8-3.1-7.9C654.5,754.4,652,753.3,648.9,753.3z"/>
	<path class="st2" d="M740.1,726.7v29.7c-1.9-1.1-3.7-1.6-5.3-1.6c-5,0-7.6,3.9-7.6,11.6v35.1h-27.8V761c0-10.7,2.9-19.2,8.8-25.6
		c5.8-6.4,13.6-9.5,23.4-9.5C733.8,725.9,736.7,726.2,740.1,726.7z"/>
	<path class="st2" d="M786.3,801.5v-65.8c0-11.5,3.5-20.8,10.4-27.7c6.9-6.9,16.1-10.4,27.6-10.4c11.4,0,20.2,3.4,26.2,10.1
		c6.1,6.7,9.1,16.4,9.1,29v64.7h-30.1v-64.7c0-6.2-2.2-9.3-6.6-9.3c-4.3,0-6.4,3.1-6.4,9.3v64.7H786.3z"/>
	<path class="st2" d="M925.5,699.7v28.9c-2.2-0.7-3.9-1.1-5-1.1c-2.3,0-4.2,0.8-5.9,2.5c-1.6,1.7-2.4,3.7-2.4,6.1
		c0,2,0.9,4.6,2.7,7.7l2.3,4c4.2,7.2,6.2,14.2,6.2,20.9c0,9.9-3.5,18.2-10.5,25c-7,6.8-15.6,10.2-25.7,10.2c-4.9,0-9.7-1.1-14.4-3.3
		v-29.3c2.9,1.8,5.4,2.7,7.6,2.7c2.6,0,4.8-0.8,6.6-2.3c1.8-1.5,2.6-3.4,2.6-5.7c0-1.5-1.4-4.7-4.2-9.7c-4.5-7.9-6.8-15.8-6.8-23.8
		c0-9.6,3.4-17.8,10.2-24.7c6.8-6.9,14.9-10.4,24.4-10.4C917.4,697.6,921.5,698.3,925.5,699.7z"/>
</g>
<g class="st3">
	<path class="st1" d="M98.4,727.5v72.2H68.3V698.4h39.3c17.2,0,30.7,3.9,40.5,11.7c11.6,9.4,17.4,22.1,17.4,38.1
		c0,15.3-5,27.9-14.8,37.6c-9.9,9.7-22.6,14.6-38.2,14.6c-1.8,0-4.8-0.1-9-0.3v-29.8h4.8c17.6,0,26.4-7.4,26.4-22.1
		c0-13.8-8.6-20.7-25.9-20.7H98.4z"/>
	<path class="st1" d="M177.5,799.7v-73.1c0-9.1,2.7-16.5,8.2-22.2c5.5-5.7,12.6-8.6,21.4-8.6c10.4,0,18.4,4.8,24,14.3
		c3.4-5.1,7.1-8.8,11-11c3.9-2.2,8.7-3.3,14.5-3.3c9.1,0,16.1,2.9,20.9,8.6c4.9,5.7,7.3,14,7.3,24.8v70.5h-30.1v-65.9
		c0-3.3-0.3-5.4-0.8-6.5c-0.5-1.1-1.6-1.6-3.2-1.6c-3,0-4.5,2.5-4.5,7.6v66.5h-30.1v-65.9c0-3.2-0.3-5.4-0.8-6.5
		c-0.5-1.1-1.6-1.6-3.2-1.6c-3,0-4.5,2.7-4.5,8.1v65.9H177.5z"/>
	<path class="st2" d="M371.2,727.5v72.2h-30.1V698.4h39.3c17.2,0,30.7,3.9,40.5,11.7c11.6,9.4,17.4,22.1,17.4,38.1
		c0,15.3-5,27.9-14.8,37.6c-9.9,9.7-22.6,14.6-38.2,14.6c-1.8,0-4.8-0.1-9-0.3v-29.8h4.8c17.6,0,26.4-7.4,26.4-22.1
		c0-13.8-8.6-20.7-25.9-20.7H371.2z"/>
	<path class="st2" d="M523.1,767.2H481c-0.6-2.1-1-4.1-1-5.9c0-2.5,0.4-4.9,1.3-7.3h14.1c-1-5.5-4.1-8.2-9.3-8.2
		c-3.5,0-6.3,1.5-8.5,4.4c-2.2,2.9-3.3,6.7-3.3,11.3c0,4.8,1.1,8.7,3.2,11.7c2.1,3,4.9,4.5,8.3,4.5c2.8,0,5.4-1.4,8-4.2l15.8,19
		c-7.4,5.8-15.6,8.7-24.6,8.7c-11,0-20.2-3.7-27.7-11.1c-7.5-7.4-11.2-16.5-11.2-27.4c0-10.8,3.8-20,11.3-27.5s16.8-11.2,27.8-11.2
		c10.7,0,19.8,3.7,27.1,11c7.3,7.3,11,16.3,11,27C523.4,763.1,523.3,764.8,523.1,767.2z"/>
	<path class="st2" d="M562.3,698.4v101.3h-27.8V698.4H562.3z M604.9,725.7l-13.6,27l20.2,47.1h-30.7l-17.4-48.3l12.6-25.7H604.9z"/>
	<path class="st2" d="M651.7,724.1c10.5,0,19.5,3.8,27,11.3c7.5,7.5,11.2,16.6,11.2,27.1c0,10.7-3.8,19.8-11.4,27.3
		c-7.6,7.5-16.8,11.3-27.5,11.3c-10.7,0-19.9-3.8-27.5-11.3c-7.6-7.5-11.4-16.6-11.4-27.3c0-10.8,3.8-20,11.4-27.4
		C631.1,727.8,640.5,724.1,651.7,724.1z M650.9,751.5c-3,0-5.5,1.1-7.6,3.2c-2.1,2.2-3.1,4.8-3.1,7.9c0,3.1,1.1,5.7,3.2,7.9
		c2.1,2.2,4.6,3.3,7.5,3.3c3,0,5.5-1.1,7.6-3.3c2.1-2.2,3.2-4.8,3.2-7.9c0-3.1-1-5.8-3.1-7.9C656.5,752.6,653.9,751.5,650.9,751.5z"
		/>
	<path class="st2" d="M742.1,725v29.7c-1.9-1.1-3.7-1.6-5.3-1.6c-5,0-7.6,3.9-7.6,11.6v35.1h-27.8v-40.5c0-10.7,2.9-19.2,8.8-25.6
		c5.8-6.4,13.6-9.5,23.4-9.5C735.8,724.1,738.6,724.4,742.1,725z"/>
	<path class="st2" d="M788.3,799.7v-65.8c0-11.5,3.5-20.8,10.4-27.7c6.9-6.9,16.1-10.4,27.6-10.4c11.4,0,20.2,3.4,26.2,10.1
		c6.1,6.7,9.1,16.4,9.1,29v64.7h-30.1V735c0-6.2-2.2-9.3-6.6-9.3c-4.3,0-6.4,3.1-6.4,9.3v64.7H788.3z"/>
	<path class="st2" d="M927.5,697.9v28.9c-2.2-0.7-3.9-1.1-5-1.1c-2.3,0-4.2,0.8-5.9,2.5c-1.6,1.7-2.4,3.7-2.4,6.1
		c0,2,0.9,4.6,2.7,7.7l2.3,4c4.2,7.2,6.2,14.2,6.2,20.9c0,9.9-3.5,18.2-10.5,25c-7,6.8-15.6,10.2-25.7,10.2c-4.9,0-9.7-1.1-14.4-3.3
		v-29.3c2.9,1.8,5.4,2.7,7.6,2.7c2.6,0,4.8-0.8,6.6-2.3s2.6-3.4,2.6-5.7c0-1.5-1.4-4.7-4.2-9.7c-4.5-7.9-6.8-15.8-6.8-23.8
		c0-9.6,3.4-17.8,10.2-24.7c6.8-6.9,14.9-10.4,24.4-10.4C919.4,695.8,923.5,696.5,927.5,697.9z"/>
</g>
<g>
	<path class="st4" d="M351.2,867.4v-7.2c0-4.2,1-7.5,3.1-9.9c2.1-2.4,4.9-3.6,8.5-3.6c3.6,0,6.4,1.2,8.5,3.6
		c2.1,2.4,3.1,5.7,3.1,9.9v7.2c0,4.2-1,7.5-3.1,9.9c-2.1,2.4-4.9,3.6-8.5,3.6c-3.6,0-6.4-1.2-8.5-3.6
		C352.2,874.9,351.2,871.6,351.2,867.4z M360.5,858.3v11c0,2,0.8,3,2.3,3c1.6,0,2.3-1,2.3-3v-11c0-2-0.8-3-2.3-3
		C361.3,855.3,360.5,856.3,360.5,858.3z"/>
	<path class="st4" d="M385.5,846.5l8.6,3l-6.4,17.9c-0.2,0.5-0.3,1-0.3,1.4c0,0.9,0.3,1.6,1,2.2c0.6,0.6,1.4,0.9,2.3,0.9
		s1.6-0.3,2.2-0.9c0.6-0.6,0.9-1.4,0.9-2.3c0-0.9-0.3-1.7-0.9-2.3c-0.6-0.6-1.4-0.9-2.2-0.9c-0.2,0-0.5,0-0.9,0.1l3.9-9.4
		c3.4,1.5,5.8,3.2,7.3,5.1c1.5,1.9,2.2,4.3,2.2,7.1c0,3.5-1.2,6.5-3.6,9c-2.4,2.4-5.4,3.6-8.9,3.6c-3.3,0-6.2-1.2-8.7-3.6
		c-2.5-2.4-3.7-5.3-3.7-8.5c0-1.5,0.6-3.9,1.7-7.1L385.5,846.5z"/>
	<path class="st4" d="M423.8,881.1l-8.6-3l6.4-17.9c0.2-0.5,0.3-1,0.3-1.4c0-0.9-0.3-1.6-1-2.2c-0.6-0.6-1.4-0.9-2.3-0.9
		c-0.9,0-1.6,0.3-2.2,0.9c-0.6,0.6-0.9,1.4-0.9,2.3c0,0.9,0.3,1.7,0.9,2.3c0.6,0.6,1.4,0.9,2.3,0.9c0.2,0,0.5,0,0.9-0.1l-3.9,9.4
		c-3.4-1.5-5.8-3.2-7.3-5.1c-1.5-1.9-2.2-4.3-2.2-7.1c0-3.5,1.2-6.5,3.6-8.9c2.4-2.4,5.4-3.6,8.9-3.6c3.3,0,6.2,1.2,8.7,3.7
		c2.5,2.4,3.7,5.3,3.7,8.5c0,1.5-0.6,3.9-1.7,7.1L423.8,881.1z"/>
	<path class="st4" d="M447.2,847.5l-8.9,38.9h-4.4l8.9-38.9H447.2z"/>
	<path class="st4" d="M474.5,847.5l-9.5,32.7H455l7.4-23.3h-10v-9.4H474.5z"/>
	<path class="st4" d="M503.3,847.5v32.7h-9.2v-24.9l-4.1,8.1h2v7.1h-12.8l9.7-22.9H503.3z"/>
	<path class="st4" d="M528,847.5v9.4h-8l-0.4,1.5c2.9,0.8,5.1,2.1,6.5,3.7c1.9,2.2,2.9,4.8,2.9,7.8c0,3.2-1.2,5.9-3.5,8
		c-2.4,2.1-5.3,3.2-8.9,3.2c-2.4,0-4.8-0.6-7.1-1.9v-8c1.9,0.9,3.5,1.4,4.9,1.4c1.5,0,2.6-0.3,3.5-1c0.9-0.7,1.3-1.6,1.3-2.7
		c0-1.3-0.7-2.4-2-3.3c-1.3-0.9-2.9-1.3-4.9-1.3c-0.7,0-1.7,0.1-2.9,0.4l3.5-17H528z"/>
	<path class="st4" d="M544,862.5v6.3h-10.9v-6.3H544z"/>
	<path class="st4" d="M552.7,846.5l8.6,3l-6.4,17.9c-0.2,0.5-0.3,1-0.3,1.4c0,0.9,0.3,1.6,1,2.2c0.6,0.6,1.4,0.9,2.3,0.9
		c0.9,0,1.6-0.3,2.2-0.9c0.6-0.6,0.9-1.4,0.9-2.3c0-0.9-0.3-1.7-0.9-2.3c-0.6-0.6-1.4-0.9-2.2-0.9c-0.2,0-0.5,0-0.9,0.1l3.9-9.4
		c3.4,1.5,5.8,3.2,7.3,5.1c1.5,1.9,2.2,4.3,2.2,7.1c0,3.5-1.2,6.5-3.6,9c-2.4,2.4-5.4,3.6-8.9,3.6c-3.3,0-6.2-1.2-8.7-3.6
		c-2.5-2.4-3.7-5.3-3.7-8.5c0-1.5,0.6-3.9,1.7-7.1L552.7,846.5z"/>
	<path class="st4" d="M580.6,846.5l8.6,3l-6.4,17.9c-0.2,0.5-0.3,1-0.3,1.4c0,0.9,0.3,1.6,1,2.2c0.6,0.6,1.4,0.9,2.3,0.9
		c0.9,0,1.6-0.3,2.2-0.9c0.6-0.6,0.9-1.4,0.9-2.3c0-0.9-0.3-1.7-0.9-2.3c-0.6-0.6-1.4-0.9-2.2-0.9c-0.2,0-0.5,0-0.9,0.1l3.9-9.4
		c3.4,1.5,5.8,3.2,7.3,5.1c1.5,1.9,2.2,4.3,2.2,7.1c0,3.5-1.2,6.5-3.6,9c-2.4,2.4-5.4,3.6-8.9,3.6c-3.3,0-6.2-1.2-8.7-3.6
		c-2.5-2.4-3.7-5.3-3.7-8.5c0-1.5,0.6-3.9,1.7-7.1L580.6,846.5z"/>
	<path class="st4" d="M618.9,881.1l-8.6-3l6.4-17.9c0.2-0.5,0.3-1,0.3-1.4c0-0.9-0.3-1.6-1-2.2c-0.6-0.6-1.4-0.9-2.3-0.9
		c-0.9,0-1.6,0.3-2.2,0.9c-0.6,0.6-0.9,1.4-0.9,2.3c0,0.9,0.3,1.7,0.9,2.3c0.6,0.6,1.4,0.9,2.3,0.9c0.2,0,0.5,0,0.9-0.1l-3.9,9.4
		c-3.4-1.5-5.8-3.2-7.3-5.1c-1.5-1.9-2.2-4.3-2.2-7.1c0-3.5,1.2-6.5,3.6-8.9c2.4-2.4,5.4-3.6,8.9-3.6c3.3,0,6.2,1.2,8.7,3.7
		c2.5,2.4,3.7,5.3,3.7,8.5c0,1.5-0.6,3.9-1.7,7.1L618.9,881.1z"/>
</g>
<g class="st5">
	<path class="st6" d="M352.2,866.9v-7.2c0-4.2,1-7.5,3.1-9.9c2.1-2.4,4.9-3.6,8.5-3.6c3.6,0,6.4,1.2,8.5,3.6
		c2.1,2.4,3.1,5.7,3.1,9.9v7.2c0,4.2-1,7.5-3.1,9.9c-2.1,2.4-4.9,3.6-8.5,3.6c-3.6,0-6.4-1.2-8.5-3.6
		C353.2,874.4,352.2,871.1,352.2,866.9z M361.5,857.8v11c0,2,0.8,3,2.3,3c1.6,0,2.3-1,2.3-3v-11c0-2-0.8-3-2.3-3
		C362.2,854.8,361.5,855.8,361.5,857.8z"/>
	<path class="st6" d="M386.5,846l8.6,3l-6.4,17.9c-0.2,0.5-0.3,1-0.3,1.4c0,0.9,0.3,1.6,1,2.2c0.6,0.6,1.4,0.9,2.3,0.9
		s1.6-0.3,2.2-0.9c0.6-0.6,0.9-1.4,0.9-2.3c0-0.9-0.3-1.7-0.9-2.3c-0.6-0.6-1.4-0.9-2.2-0.9c-0.2,0-0.5,0-0.9,0.1l3.9-9.4
		c3.4,1.5,5.8,3.2,7.3,5.1c1.5,1.9,2.2,4.3,2.2,7.1c0,3.5-1.2,6.5-3.6,9c-2.4,2.4-5.4,3.6-8.9,3.6c-3.3,0-6.2-1.2-8.7-3.6
		c-2.5-2.4-3.7-5.3-3.7-8.5c0-1.5,0.6-3.9,1.7-7.1L386.5,846z"/>
	<path class="st6" d="M424.8,880.6l-8.6-3l6.4-17.9c0.2-0.5,0.3-1,0.3-1.4c0-0.9-0.3-1.6-1-2.2c-0.6-0.6-1.4-0.9-2.3-0.9
		c-0.9,0-1.6,0.3-2.2,0.9c-0.6,0.6-0.9,1.4-0.9,2.3c0,0.9,0.3,1.7,0.9,2.3c0.6,0.6,1.4,0.9,2.3,0.9c0.2,0,0.5,0,0.9-0.1l-3.9,9.4
		c-3.4-1.5-5.8-3.2-7.3-5.1c-1.5-1.9-2.2-4.3-2.2-7.1c0-3.5,1.2-6.5,3.6-8.9c2.4-2.4,5.4-3.6,8.9-3.6c3.3,0,6.2,1.2,8.7,3.7
		c2.5,2.4,3.7,5.3,3.7,8.5c0,1.5-0.6,3.9-1.7,7.1L424.8,880.6z"/>
	<path class="st6" d="M448.2,847l-8.9,38.9h-4.4l8.9-38.9H448.2z"/>
	<path class="st6" d="M475.4,847l-9.5,32.7H456l7.4-23.3h-10V847H475.4z"/>
	<path class="st6" d="M504.3,847v32.7h-9.2v-24.9l-4.1,8.1h2v7.1h-12.8l9.7-22.9H504.3z"/>
	<path class="st6" d="M529,847v9.4h-8l-0.4,1.5c2.9,0.8,5.1,2.1,6.5,3.7c1.9,2.2,2.9,4.8,2.9,7.8c0,3.2-1.2,5.9-3.5,8
		c-2.4,2.1-5.3,3.2-8.9,3.2c-2.4,0-4.8-0.6-7.1-1.9v-8c1.9,0.9,3.5,1.4,4.9,1.4c1.5,0,2.6-0.3,3.5-1c0.9-0.7,1.3-1.6,1.3-2.7
		c0-1.3-0.7-2.4-2-3.3c-1.3-0.9-2.9-1.3-4.9-1.3c-0.7,0-1.7,0.1-2.9,0.4l3.5-17H529z"/>
	<path class="st6" d="M545,862v6.3H534V862H545z"/>
	<path class="st6" d="M553.7,846l8.6,3l-6.4,17.9c-0.2,0.5-0.3,1-0.3,1.4c0,0.9,0.3,1.6,1,2.2c0.6,0.6,1.4,0.9,2.3,0.9
		c0.9,0,1.6-0.3,2.2-0.9c0.6-0.6,0.9-1.4,0.9-2.3c0-0.9-0.3-1.7-0.9-2.3c-0.6-0.6-1.4-0.9-2.2-0.9c-0.2,0-0.5,0-0.9,0.1l3.9-9.4
		c3.4,1.5,5.8,3.2,7.3,5.1c1.5,1.9,2.2,4.3,2.2,7.1c0,3.5-1.2,6.5-3.6,9c-2.4,2.4-5.4,3.6-8.9,3.6c-3.3,0-6.2-1.2-8.7-3.6
		c-2.5-2.4-3.7-5.3-3.7-8.5c0-1.5,0.6-3.9,1.7-7.1L553.7,846z"/>
	<path class="st6" d="M581.5,846l8.6,3l-6.4,17.9c-0.2,0.5-0.3,1-0.3,1.4c0,0.9,0.3,1.6,1,2.2c0.6,0.6,1.4,0.9,2.3,0.9
		c0.9,0,1.6-0.3,2.2-0.9c0.6-0.6,0.9-1.4,0.9-2.3c0-0.9-0.3-1.7-0.9-2.3c-0.6-0.6-1.4-0.9-2.2-0.9c-0.2,0-0.5,0-0.9,0.1l3.9-9.4
		c3.4,1.5,5.8,3.2,7.3,5.1c1.5,1.9,2.2,4.3,2.2,7.1c0,3.5-1.2,6.5-3.6,9c-2.4,2.4-5.4,3.6-8.9,3.6c-3.3,0-6.2-1.2-8.7-3.6
		c-2.5-2.4-3.7-5.3-3.7-8.5c0-1.5,0.6-3.9,1.7-7.1L581.5,846z"/>
	<path class="st6" d="M619.9,880.6l-8.6-3l6.4-17.9c0.2-0.5,0.3-1,0.3-1.4c0-0.9-0.3-1.6-1-2.2c-0.6-0.6-1.4-0.9-2.3-0.9
		c-0.9,0-1.6,0.3-2.2,0.9c-0.6,0.6-0.9,1.4-0.9,2.3c0,0.9,0.3,1.7,0.9,2.3c0.6,0.6,1.4,0.9,2.3,0.9c0.2,0,0.5,0,0.9-0.1l-3.9,9.4
		c-3.4-1.5-5.8-3.2-7.3-5.1c-1.5-1.9-2.2-4.3-2.2-7.1c0-3.5,1.2-6.5,3.6-8.9c2.4-2.4,5.4-3.6,8.9-3.6c3.3,0,6.2,1.2,8.7,3.7
		c2.5,2.4,3.7,5.3,3.7,8.5c0,1.5-0.6,3.9-1.7,7.1L619.9,880.6z"/>
</g>
</svg>
